<svg width="214.948456" height="100.000000" viewBox="0 0 214.948 100" fill="none" xmlns="http://www.w3.org/2000/svg" xmlns:xlink="http://www.w3.org/1999/xlink">
	<desc>
			Created with Pixso.
	</desc>
	<defs>
		<clipPath id="clip2_1">
			<rect id="画板 1" width="214.948456" height="100.000000" fill="white" fill-opacity="0"/>
		</clipPath>
	</defs>
	<rect id="画板 1" width="214.948456" height="100.000000" fill="#FFFFFF" fill-opacity="0"/>
	<g clip-path="url(#clip2_1)">
		<path id="QuestionPlanet" d="M141.37 36.89L141.37 62.56Q141.37 62.63 141.38 62.69Q141.43 62.97 141.71 63.21Q141.86 63.33 142.02 63.4Q142.25 63.5 142.52 63.5Q142.88 63.5 143.16 63.34Q143.27 63.28 143.36 63.21Q143.64 62.97 143.7 62.69Q143.71 62.63 143.71 62.56L143.71 36.89Q143.71 36.78 143.67 36.67Q143.6 36.45 143.36 36.28Q143.32 36.25 143.28 36.23Q142.96 36.03 142.52 36.03Q142.06 36.03 141.75 36.24Q141.72 36.26 141.69 36.28Q141.48 36.44 141.41 36.65Q141.37 36.77 141.37 36.89ZM2.45 44.84L2.45 56.01Q2.45 59.75 4.2 61.61Q4.51 61.93 4.86 62.2Q6.51 63.5 9.03 63.67L9.03 66.52Q9.03 66.84 9.19 67.05Q9.24 67.12 9.3 67.18Q9.39 67.25 9.49 67.3Q9.7 67.41 9.97 67.41Q10.16 67.41 10.33 67.35Q10.47 67.29 10.59 67.18Q10.66 67.12 10.71 67.05Q10.87 66.84 10.87 66.52L10.87 63.67Q13.28 63.5 14.88 62.28Q15.29 61.97 15.65 61.59Q17.41 59.72 17.41 56.01L17.41 44.84Q17.41 40.99 15.49 39.13Q15.44 39.08 15.38 39.04Q15.16 38.83 14.91 38.64Q12.97 37.18 9.93 37.18Q6.9 37.18 4.96 38.63Q4.71 38.82 4.48 39.04Q4.42 39.08 4.37 39.13Q2.45 40.99 2.45 44.84ZM122.57 38.04L122.57 62.56Q122.57 62.78 122.66 62.96Q122.75 63.12 122.92 63.25Q122.94 63.27 122.97 63.28Q123.3 63.5 123.76 63.5Q124.11 63.5 124.4 63.36Q124.5 63.31 124.59 63.25Q124.79 63.11 124.87 62.93Q124.95 62.77 124.95 62.56L124.95 52.84L130.13 52.84Q133.18 52.84 135.12 51.38Q135.36 51.2 135.59 50.99Q135.64 50.94 135.69 50.9Q137.62 49.04 137.62 45.17L137.62 44.81Q137.62 40.93 135.68 39.09Q135.64 39.05 135.61 39.02Q135.37 38.8 135.12 38.61Q133.2 37.18 130.21 37.18L123.58 37.18Q122.95 37.22 122.71 37.56Q122.57 37.75 122.57 38.04ZM70.05 39.23L70.05 58.2Q70.05 60.66 71.28 61.98Q72.69 63.5 75.74 63.5L76.75 63.5Q77.01 63.5 77.22 63.39Q77.39 63.31 77.52 63.17Q77.7 62.98 77.77 62.76Q77.83 62.6 77.83 62.41Q77.83 62.21 77.76 62.03Q77.68 61.83 77.52 61.68Q77.4 61.56 77.26 61.48Q77.04 61.37 76.75 61.37L75.74 61.37Q73.87 61.37 73.13 60.67Q72.39 59.97 72.39 58.2L72.39 48.41L77.03 48.41Q77.19 48.41 77.33 48.36Q77.5 48.28 77.63 48.12Q77.72 48.01 77.77 47.89Q77.87 47.68 77.87 47.44Q77.87 47.18 77.76 46.97Q77.71 46.86 77.63 46.76Q77.5 46.6 77.33 46.53Q77.19 46.47 77.03 46.47L72.39 46.47L72.39 39.23Q72.39 39.12 72.36 39.03Q72.29 38.8 72.03 38.62Q71.9 38.53 71.76 38.47Q71.5 38.37 71.2 38.37Q71.02 38.37 70.84 38.41Q70.62 38.48 70.41 38.62Q70.16 38.8 70.08 39.03Q70.05 39.12 70.05 39.23ZM198.57 39.23L198.57 58.2Q198.57 60.66 199.8 61.98Q201.21 63.5 204.26 63.5L205.27 63.5Q205.53 63.5 205.74 63.39Q205.91 63.31 206.04 63.17Q206.22 62.98 206.29 62.76Q206.35 62.6 206.35 62.41Q206.35 62.21 206.28 62.03Q206.2 61.83 206.04 61.68Q205.93 61.56 205.78 61.48Q205.56 61.37 205.27 61.37L204.26 61.37Q202.39 61.37 201.65 60.67Q200.91 59.97 200.91 58.2L200.91 48.41L205.55 48.41Q205.71 48.41 205.85 48.36Q206.02 48.28 206.15 48.12Q206.24 48.01 206.3 47.89Q206.39 47.68 206.39 47.44Q206.39 47.18 206.29 46.97Q206.23 46.86 206.15 46.76Q206.02 46.6 205.85 46.53Q205.71 46.47 205.55 46.47L200.91 46.47L200.91 39.23Q200.91 39.12 200.88 39.03Q200.81 38.8 200.55 38.62Q200.42 38.53 200.28 38.47Q200.02 38.37 199.72 38.37Q199.54 38.37 199.36 38.41Q199.14 38.48 198.93 38.62Q198.68 38.8 198.6 39.03Q198.57 39.12 198.57 39.23ZM80.43 40.4Q80.54 40.72 80.81 40.98Q81 41.15 81.22 41.26Q81.55 41.43 81.97 41.43Q82.32 41.43 82.61 41.29Q82.86 41.18 83.06 40.98Q83.31 40.73 83.42 40.43Q83.51 40.19 83.51 39.91Q83.51 39.62 83.41 39.36Q83.3 39.09 83.06 38.87Q82.88 38.69 82.65 38.58Q82.34 38.44 81.97 38.44Q81.52 38.44 81.17 38.62Q80.98 38.71 80.81 38.87Q80.56 39.1 80.44 39.4Q80.35 39.64 80.35 39.91Q80.35 40.17 80.43 40.4ZM6.26 60.25Q4.82 58.89 4.82 56.01L4.82 44.84Q4.82 41.93 6.28 40.56Q7.55 39.38 9.93 39.38Q12.31 39.38 13.59 40.57Q15.04 41.93 15.04 44.84L15.04 56.01Q15.04 58.87 13.61 60.23Q12.6 61.2 10.87 61.4L10.87 58.74Q10.87 58.33 10.66 58.11Q10.44 57.88 9.97 57.88Q9.46 57.88 9.23 58.13Q9.03 58.35 9.03 58.74L9.03 61.4Q7.28 61.21 6.26 60.25ZM130.13 50.79L124.95 50.79L124.95 39.38L130.13 39.38Q132.52 39.38 133.79 40.57Q135.25 41.93 135.25 44.84L135.25 45.28Q135.25 48.05 133.91 49.42Q133.76 49.58 133.59 49.72Q132.3 50.79 130.13 50.79ZM39.12 52.88L39.12 56.9Q39.12 58.73 39.89 60.14Q40.41 61.1 41.29 61.86Q41.64 62.17 42.04 62.43Q44.01 63.75 46.87 63.75Q49.17 63.75 50.72 62.94Q52.26 62.12 52.26 61.37Q52.26 61.01 51.96 60.63Q51.73 60.35 51.45 60.28Q51.36 60.25 51.26 60.25Q50.97 60.25 50.48 60.61Q50 60.97 49.07 61.33Q48.16 61.69 46.94 61.69Q44.81 61.69 43.37 60.7Q43.18 60.57 43 60.42Q42.36 59.88 41.99 59.2Q41.47 58.25 41.47 57.02L41.47 55.68L49.6 55.68Q50.36 55.68 50.79 55.61Q51.23 55.54 51.75 55.29Q51.89 55.22 52.01 55.12Q52.33 54.86 52.5 54.42Q52.74 53.81 52.74 52.8Q52.74 51.3 52.17 50.07Q51.67 48.99 50.73 48.12Q49.73 47.18 48.55 46.72Q47.37 46.25 46.01 46.25Q44.53 46.25 43.27 46.78Q42.11 47.27 41.14 48.21Q40.01 49.31 39.51 50.65Q39.12 51.69 39.12 52.88ZM55.44 60.44Q55.18 60.8 55.18 61.16Q55.18 61.17 55.18 61.18Q55.21 62.07 56.82 62.91Q58.46 63.75 60.83 63.75Q63.58 63.75 65.1 62.51Q65.68 62.04 66.04 61.44Q66.63 60.45 66.63 59.1Q66.63 57.43 65.84 56.33Q65.78 56.25 65.71 56.16Q65.12 55.44 64.37 54.99Q63.95 54.74 63.48 54.58Q62.17 54.13 60.85 53.79Q59.54 53.45 58.62 52.81Q58.16 52.48 57.93 52.03Q57.7 51.59 57.7 51.04Q57.7 50.74 57.77 50.46Q57.95 49.72 58.6 49.1Q59.51 48.23 61.3 48.23Q61.57 48.23 61.83 48.25Q62.82 48.34 63.79 48.74Q65.01 49.24 65.12 49.24Q65.21 49.24 65.3 49.22Q65.58 49.14 65.8 48.81Q66.09 48.38 66.09 48.02Q66.09 48 66.09 47.98Q66.05 47.35 64.56 46.81Q63.03 46.25 61.26 46.25Q58.5 46.25 57.08 47.63Q57.04 47.67 57 47.71Q56.21 48.52 55.86 49.48Q55.58 50.26 55.58 51.15Q55.58 52.56 56.25 53.5Q56.36 53.65 56.49 53.79Q56.89 54.22 57.36 54.55Q57.98 54.97 58.72 55.22Q60.04 55.65 61.33 56.01Q62.63 56.37 63.55 57.14Q63.91 57.44 64.13 57.83Q64.47 58.42 64.47 59.21Q64.47 59.72 64.29 60.14Q64.06 60.66 63.57 61.05Q62.67 61.76 60.76 61.76Q59.36 61.76 58.35 61.33Q57.34 60.9 56.8 60.49Q56.26 60.08 56.01 60.08Q55.96 60.08 55.92 60.08Q55.65 60.13 55.44 60.44ZM87.01 52.98L87.01 56.9Q87.01 57.91 87.29 58.83Q87.77 60.38 89.05 61.68Q90.35 62.99 91.9 63.47Q92.81 63.75 93.81 63.75Q94.89 63.75 95.86 63.43Q97.36 62.94 98.62 61.68Q99.93 60.37 100.41 58.79Q100.69 57.89 100.69 56.9L100.69 52.98Q100.69 51.73 100.27 50.65Q99.76 49.32 98.63 48.24Q97.51 47.15 96.17 46.66Q95.06 46.25 93.81 46.25Q92.56 46.25 91.46 46.66Q90.13 47.16 89.02 48.25Q87.89 49.37 87.39 50.73Q87.01 51.78 87.01 52.98ZM104.54 47.33L104.54 62.56Q104.54 62.63 104.55 62.7Q104.6 62.97 104.86 63.21Q104.94 63.27 105.03 63.33Q105.31 63.5 105.69 63.5Q105.93 63.5 106.14 63.42Q106.34 63.35 106.52 63.21Q106.82 62.96 106.87 62.68Q106.88 62.62 106.88 62.56L106.88 52.98Q106.88 51.52 107.53 50.46Q107.8 50.03 108.17 49.67Q108.97 48.9 109.91 48.6Q110.51 48.41 111.17 48.41Q111.93 48.41 112.61 48.66Q113.56 49 114.33 49.82Q115.21 50.74 115.51 51.83Q115.67 52.38 115.67 52.98L115.67 62.56Q115.67 62.77 115.75 62.93Q115.84 63.11 116.03 63.25Q116.22 63.38 116.43 63.44Q116.62 63.5 116.82 63.5Q117.14 63.5 117.41 63.38Q117.53 63.33 117.64 63.25Q117.83 63.11 117.92 62.93Q118 62.77 118 62.56L118 52.98Q118 51.56 117.5 50.35Q117.02 49.2 116.1 48.24Q114.96 47.05 113.57 46.57Q112.64 46.25 111.6 46.25Q110.05 46.25 108.87 46.91Q108.76 46.97 108.64 47.04Q107.43 47.8 106.82 48.9Q106.79 48.94 106.77 48.98L106.77 47.33Q106.77 47.21 106.73 47.1Q106.66 46.89 106.45 46.73Q106.32 46.62 106.17 46.56Q105.95 46.47 105.69 46.47Q105.19 46.47 104.86 46.71Q104.7 46.82 104.62 46.98Q104.54 47.14 104.54 47.33ZM148.19 56.17Q147.34 57.25 147.34 59Q147.34 60.96 148.31 62.14Q148.49 62.35 148.71 62.55Q148.95 62.76 149.21 62.93Q150.46 63.75 152.24 63.75Q152.94 63.75 153.6 63.6Q155.82 63.11 157.67 60.97L157.67 62.56Q157.67 62.74 157.73 62.89Q157.81 63.08 157.98 63.23Q158.05 63.29 158.12 63.33Q158.39 63.5 158.75 63.5Q159.22 63.5 159.53 63.27Q159.55 63.25 159.58 63.23Q159.77 63.07 159.85 62.86Q159.9 62.72 159.9 62.56L159.9 53.2Q159.9 50.46 158.63 48.6Q158.49 48.4 158.34 48.21Q158.12 47.94 157.87 47.7Q156.3 46.25 153.39 46.25Q151.62 46.25 150.08 46.83Q148.58 47.38 148.53 48.04Q148.53 48.07 148.53 48.09Q148.53 48.32 148.59 48.54Q148.65 48.75 148.78 48.95Q148.92 49.18 149.13 49.27Q149.28 49.34 149.47 49.34Q149.54 49.34 150.71 48.83Q151.88 48.3 153.32 48.3Q154.87 48.3 155.84 49.05Q156.23 49.34 156.52 49.76Q156.77 50.1 156.96 50.48Q157.57 51.69 157.57 53.2L157.57 54.06L155.73 54.06Q151.62 54.06 149.48 55.15Q148.69 55.54 148.19 56.17ZM164.3 47.33L164.3 62.56Q164.3 62.63 164.31 62.7Q164.36 62.97 164.62 63.21Q164.7 63.27 164.79 63.33Q165.07 63.5 165.45 63.5Q165.69 63.5 165.9 63.42Q166.1 63.35 166.28 63.21Q166.58 62.96 166.63 62.68Q166.64 62.62 166.64 62.56L166.64 52.98Q166.64 51.52 167.29 50.46Q167.56 50.03 167.93 49.67Q168.73 48.9 169.67 48.6Q170.27 48.41 170.93 48.41Q171.69 48.41 172.37 48.66Q173.32 49 174.09 49.82Q174.97 50.74 175.27 51.83Q175.43 52.38 175.43 52.98L175.43 62.56Q175.43 62.77 175.51 62.93Q175.6 63.11 175.79 63.25Q175.98 63.38 176.19 63.44Q176.38 63.5 176.58 63.5Q176.9 63.5 177.17 63.38Q177.29 63.33 177.4 63.25Q177.59 63.11 177.68 62.93Q177.76 62.77 177.76 62.56L177.76 52.98Q177.76 51.56 177.26 50.35Q176.78 49.2 175.86 48.24Q174.72 47.05 173.33 46.57Q172.4 46.25 171.36 46.25Q169.81 46.25 168.63 46.91Q168.52 46.97 168.4 47.04Q167.19 47.8 166.58 48.9Q166.55 48.94 166.53 48.98L166.53 47.33Q166.53 47.21 166.49 47.1Q166.42 46.89 166.21 46.73Q166.08 46.62 165.93 46.56Q165.71 46.47 165.45 46.47Q164.95 46.47 164.62 46.71Q164.46 46.82 164.38 46.98Q164.3 47.14 164.3 47.33ZM181.5 52.88L181.5 56.9Q181.5 58.73 182.27 60.14Q182.79 61.1 183.67 61.86Q184.03 62.17 184.42 62.43Q186.4 63.75 189.25 63.75Q191.55 63.75 193.1 62.94Q194.64 62.12 194.64 61.37Q194.64 61.01 194.34 60.63Q194.11 60.35 193.84 60.28Q193.74 60.25 193.64 60.25Q193.35 60.25 192.86 60.61Q192.38 60.97 191.45 61.33Q190.54 61.69 189.32 61.69Q187.19 61.69 185.75 60.7Q185.56 60.57 185.38 60.42Q184.74 59.88 184.37 59.2Q183.85 58.25 183.85 57.02L183.85 55.68L191.98 55.68Q192.74 55.68 193.17 55.61Q193.61 55.54 194.13 55.29Q194.27 55.22 194.39 55.12Q194.71 54.86 194.88 54.42Q195.12 53.81 195.12 52.8Q195.12 51.3 194.55 50.07Q194.05 48.99 193.12 48.12Q192.11 47.18 190.93 46.72Q189.75 46.25 188.39 46.25Q186.91 46.25 185.65 46.78Q184.49 47.27 183.52 48.21Q182.39 49.31 181.89 50.65Q181.5 51.69 181.5 52.88ZM21.74 47.37L21.74 56.98Q21.74 58.05 22.06 59.02Q22.54 60.49 23.76 61.72Q24.82 62.79 26.1 63.3Q27.25 63.75 28.58 63.75Q29.79 63.75 30.86 63.36Q32.24 62.86 33.38 61.72Q34.63 60.47 35.11 58.97Q35.42 58.03 35.42 56.98L35.42 47.33Q35.42 47.22 35.38 47.12Q35.31 46.89 35.08 46.73Q34.98 46.65 34.87 46.6Q34.6 46.47 34.27 46.47Q33.97 46.47 33.71 46.58Q33.57 46.64 33.44 46.73Q33.18 46.9 33.11 47.13Q33.08 47.23 33.08 47.33L33.08 56.98Q33.08 57.63 32.91 58.22Q32.6 59.28 31.74 60.18Q30.97 61 30.03 61.34Q29.35 61.59 28.58 61.59Q27.82 61.59 27.15 61.35Q26.19 61.01 25.41 60.18Q24.56 59.29 24.26 58.23Q24.08 57.63 24.08 56.98L24.08 47.37Q24.08 47.33 24.08 47.3Q24.04 47.01 23.72 46.76Q23.48 46.57 23.21 46.5Q23.08 46.47 22.93 46.47Q22.54 46.47 22.25 46.64Q22.16 46.69 22.08 46.76Q21.78 47.01 21.75 47.29Q21.74 47.33 21.74 47.37ZM80.81 47.33L80.81 62.56Q80.81 62.63 80.83 62.69Q80.88 62.97 81.16 63.21Q81.3 63.33 81.47 63.4Q81.7 63.5 81.97 63.5Q82.21 63.5 82.42 63.42Q82.62 63.35 82.79 63.21Q83.09 62.96 83.14 62.68Q83.15 62.62 83.15 62.56L83.15 47.33Q83.15 47.22 83.12 47.12Q83.04 46.89 82.81 46.73Q82.77 46.7 82.73 46.67Q82.41 46.47 81.97 46.47Q81.51 46.47 81.19 46.69Q81.17 46.7 81.14 46.73Q80.93 46.89 80.85 47.1Q80.81 47.21 80.81 47.33ZM48.67 53.96L41.47 53.96L41.47 52.59Q41.47 51.75 41.75 51.02Q42.08 50.19 42.78 49.49Q43.42 48.87 44.18 48.54Q45 48.19 45.97 48.19Q47.05 48.19 47.93 48.62Q48.62 48.96 49.19 49.56Q49.92 50.34 50.23 51.26Q50.47 51.95 50.47 52.73Q50.47 53.47 50.12 53.71Q50.12 53.72 50.11 53.72Q49.75 53.96 48.67 53.96ZM191.05 53.96L183.85 53.96L183.85 52.59Q183.85 51.75 184.13 51.02Q184.46 50.19 185.16 49.49Q185.8 48.87 186.56 48.54Q187.38 48.19 188.35 48.19Q189.43 48.19 190.31 48.62Q191 48.96 191.57 49.56Q192.3 50.34 192.61 51.26Q192.85 51.95 192.85 52.73Q192.85 53.47 192.5 53.71Q192.5 53.72 192.49 53.72Q192.13 53.96 191.05 53.96ZM89.56 58.31Q89.34 57.64 89.34 56.9L89.34 52.98Q89.34 52.36 89.51 51.78Q89.8 50.72 90.65 49.82Q91.41 49.01 92.34 48.67Q93.03 48.41 93.81 48.41Q94.56 48.41 95.22 48.65Q96.19 48.99 96.99 49.82Q97.89 50.75 98.19 51.85Q98.34 52.4 98.34 52.98L98.34 56.9Q98.34 57.62 98.14 58.27Q97.82 59.29 97.01 60.16Q96.26 60.96 95.35 61.31Q94.63 61.59 93.81 61.59Q93.05 61.59 92.37 61.34Q91.42 61 90.65 60.16Q89.87 59.31 89.56 58.31ZM150.34 60.82Q149.68 60.09 149.68 58.78Q149.68 57.83 150.13 57.2Q150.15 57.16 150.18 57.12Q150.19 57.11 150.2 57.1Q150.71 56.47 151.66 56.19Q152.64 55.9 153.62 55.8Q154.61 55.68 156.05 55.68L157.57 55.68L157.57 57.98L157.57 58Q157.56 59.26 156.04 60.51Q154.78 61.54 153.4 61.72Q153.11 61.76 152.81 61.76Q151.56 61.76 150.73 61.17Q150.63 61.1 150.54 61.03Q150.43 60.93 150.34 60.82Z" fill="#FFFFFF" fill-opacity="1.000000" fill-rule="evenodd"/>
	</g>
</svg>
